<svg id="_0" data-name="0" xmlns="http://www.w3.org/2000/svg" viewBox="0 0 524.69 316.83"><defs><style>.cls-1{fill:#60c;}.cls-2{opacity:0.32;}.cls-3{fill:#36c;}.cls-4{fill:#c0f;}.cls-5{fill:#cc3;}.cls-6{fill:#cc9;}</style></defs><g id="LWPOLYLINE"><path class="cls-1" d="M120.59,256.92h.6a17.19,17.19,0,0,1,7,1.48l10.18,4.54a2.85,2.85,0,0,1,1.58,3.39,17.57,17.57,0,0,0,0,9.7,2.85,2.85,0,0,1-1.58,3.39L128.15,284a17,17,0,0,1-7,1.48h-.6a14.26,14.26,0,1,1,0-28.51Z"/></g><g id="LWPOLYLINE-2" data-name="LWPOLYLINE"><path class="cls-1" d="M193.08,256.92h-.61a17.19,17.19,0,0,0-7,1.48l-10.17,4.54a2.85,2.85,0,0,0-1.59,3.39,17.57,17.57,0,0,1,0,9.7,2.85,2.85,0,0,0,1.59,3.39L185.51,284a17,17,0,0,0,7,1.48h.61a14.26,14.26,0,0,0,0-28.51Z"/></g><g id="LWPOLYLINE-3" data-name="LWPOLYLINE"><path class="cls-1" d="M126.37,295.44l.3-.52a17.1,17.1,0,0,1,4.76-5.29l9-6.55a2.87,2.87,0,0,1,3.73.33,17.62,17.62,0,0,0,8.4,4.85,2.85,2.85,0,0,1,2.15,3.06l-1.16,11.08a17.09,17.09,0,0,1-2.2,6.77l-.31.53a14.25,14.25,0,0,1-24.68-14.26Z"/></g><g id="LWPOLYLINE-4" data-name="LWPOLYLINE"><path class="cls-1" d="M162.61,232.66l-.3.53a17,17,0,0,0-2.2,6.77L159,251a2.84,2.84,0,0,0,2.14,3.06A17.7,17.7,0,0,1,169.5,259a2.85,2.85,0,0,0,3.72.33l9-6.55a17.1,17.1,0,0,0,4.76-5.29l.3-.52a14.26,14.26,0,0,0-24.69-14.26Z"/></g><g id="LWPOLYLINE-5" data-name="LWPOLYLINE"><path class="cls-1" d="M162.61,309.7l-.3-.53a17.09,17.09,0,0,1-2.2-6.77L159,291.32a2.84,2.84,0,0,1,2.14-3.06,17.7,17.7,0,0,0,8.41-4.85,2.85,2.85,0,0,1,3.72-.33l9,6.55a17.1,17.1,0,0,1,4.76,5.29l.3.52a14.26,14.26,0,0,1-24.69,14.26Z"/></g><g id="LWPOLYLINE-6" data-name="LWPOLYLINE"><path class="cls-1" d="M126.37,246.92l.3.52a17.1,17.1,0,0,0,4.76,5.29l9,6.55a2.87,2.87,0,0,0,3.73-.33,17.62,17.62,0,0,1,8.4-4.85,2.85,2.85,0,0,0,2.15-3.06L153.56,240a17,17,0,0,0-2.2-6.77l-.31-.53a14.25,14.25,0,1,0-24.68,14.26Z"/></g><g id="LWPOLYLINE-7" data-name="LWPOLYLINE"><path class="cls-1" d="M143.77,276.89a20.76,20.76,0,0,0,16.29-1.13,27.35,27.35,0,0,0-3.46-4.13,28.17,28.17,0,0,1-14,.18A14.38,14.38,0,0,0,143.77,276.89Z"/></g><g id="LWPOLYLINE-8" data-name="LWPOLYLINE"><path class="cls-1" d="M144.29,278a21.66,21.66,0,0,0,16.24-1.48,27.14,27.14,0,0,1,1.77,3.27A20.76,20.76,0,0,1,146.5,281,14.58,14.58,0,0,1,144.29,278Z"/></g><g id="LWPOLYLINE-9" data-name="LWPOLYLINE"><path class="cls-1" d="M147.88,282.27a21.7,21.7,0,0,0,14.77-1.73,27.92,27.92,0,0,1,1.09,3.11A14.26,14.26,0,0,1,147.88,282.27Z"/></g><g id="LWPOLYLINE-10" data-name="LWPOLYLINE"><path class="cls-1" d="M158.42,257a20.81,20.81,0,0,0-7.17,14.67,26.49,26.49,0,0,0,5.31-.93,28,28,0,0,1,6.85-12.22A14.38,14.38,0,0,0,158.42,257Z"/></g><g id="LWPOLYLINE-11" data-name="LWPOLYLINE"><path class="cls-1" d="M157.23,256.93a21.62,21.62,0,0,0-6.84,14.8,27.2,27.2,0,0,1-3.72-.1,20.8,20.8,0,0,1,6.83-14.31A14.65,14.65,0,0,1,157.23,256.93Z"/></g><g id="LWPOLYLINE-12" data-name="LWPOLYLINE"><path class="cls-1" d="M151.7,257.88a21.66,21.66,0,0,0-5.88,13.66,27.62,27.62,0,0,1-3.24-.62A14.26,14.26,0,0,1,151.7,257.88Z"/></g><g id="LWPOLYLINE-13" data-name="LWPOLYLINE"><path class="cls-1" d="M168.31,279.64a20.81,20.81,0,0,0-9.12-13.55,27.72,27.72,0,0,0-1.85,5.07,28.06,28.06,0,0,1,7.16,12A14.36,14.36,0,0,0,168.31,279.64Z"/></g><g id="LWPOLYLINE-14" data-name="LWPOLYLINE"><path class="cls-1" d="M169,278.65a21.57,21.57,0,0,0-9.39-13.32,27.29,27.29,0,0,1,1.94-3.18,20.81,20.81,0,0,1,9,13.07A13.89,13.89,0,0,1,169,278.65Z"/></g><g id="LWPOLYLINE-15" data-name="LWPOLYLINE"><path class="cls-1" d="M170.92,273.39A21.69,21.69,0,0,0,162,261.46a28.34,28.34,0,0,1,2.15-2.5A14.28,14.28,0,0,1,170.92,273.39Z"/></g><g class="cls-2"><g id="LWPOLYLINE-16" data-name="LWPOLYLINE"><path class="cls-1" d="M111.46,29.92c5.35-.15,9.63-3.16,11.85-8.34A36.79,36.79,0,0,0,118,18.27a16.84,16.84,0,0,1-10.7,6.26A27.44,27.44,0,0,0,111.46,29.92Z"/></g><g id="LWPOLYLINE-17" data-name="LWPOLYLINE"><path class="cls-1" d="M112.56,30.94c5.24-.43,9.39-3.56,11.58-8.73a44.61,44.61,0,0,1,3.5,3,13,13,0,0,1-11.41,8.27A20.68,20.68,0,0,1,112.56,30.94Z"/></g><g id="LWPOLYLINE-18" data-name="LWPOLYLINE"><path class="cls-1" d="M118.13,34.39A13.52,13.52,0,0,0,128.41,26c1,1,1.94,2,2.86,3.14C129.18,34.59,124,36.67,118.13,34.39Z"/></g><g id="LWPOLYLINE-19" data-name="LWPOLYLINE"><path class="cls-1" d="M109.87.53c-.91,6.15.53,13.42,4,20.11a17.15,17.15,0,0,0,3.5-3.37A45,45,0,0,1,114.71.13,9.89,9.89,0,0,0,109.87.53Z"/></g><g id="LWPOLYLINE-20" data-name="LWPOLYLINE"><path class="cls-1" d="M108.9.94c-.68,6.25.87,13.48,4.32,20.13a15.87,15.87,0,0,1-2.93,1.5C107,16.07,105.51,9,106.27,3A8.86,8.86,0,0,1,108.9.94Z"/></g><g id="LWPOLYLINE-21" data-name="LWPOLYLINE"><path class="cls-1" d="M105.25,4.43a37.13,37.13,0,0,0,4.32,18.39,17.27,17.27,0,0,1-2.9.69C103,16.74,102.42,9.19,105.25,4.43Z"/></g><g id="LWPOLYLINE-22" data-name="LWPOLYLINE"><path class="cls-1" d="M132.2,22.51c-4.44-6-10.16-10.26-15.83-11.78a47.54,47.54,0,0,0,1.85,6.68,44.11,44.11,0,0,1,13.35,10.88A16.79,16.79,0,0,0,132.2,22.51Z"/></g><g id="LWPOLYLINE-23" data-name="LWPOLYLINE"><path class="cls-1" d="M132.07,21.08c-4.55-5.83-10.26-9.93-15.91-11.41a41.88,41.88,0,0,1-.55-4.52c5.5,1.49,11,5.55,15.42,11.29A25.33,25.33,0,0,1,132.07,21.08Z"/></g><g id="LWPOLYLINE-24" data-name="LWPOLYLINE"><path class="cls-1" d="M130.16,14.13c-4.31-5.05-9.49-8.6-14.61-10a37.49,37.49,0,0,1,0-3.83C121.37,1.62,127.13,7.09,130.16,14.13Z"/></g></g><g id="LWPOLYLINE-25" data-name="LWPOLYLINE"><path class="cls-1" d="M98.41,33.81H99a17.26,17.26,0,0,1,7,1.48l10.17,4.54a2.84,2.84,0,0,1,1.58,3.39,17.57,17.57,0,0,0,0,9.7,2.85,2.85,0,0,1-1.58,3.39L106,60.84a17.1,17.1,0,0,1-7,1.48h-.61a14.26,14.26,0,1,1,0-28.51Z"/></g><g id="LWPOLYLINE-26" data-name="LWPOLYLINE"><path class="cls-1" d="M170.9,33.81h-.61a17.23,17.23,0,0,0-7,1.48l-10.17,4.54a2.83,2.83,0,0,0-1.58,3.39,17.57,17.57,0,0,1,0,9.7,2.84,2.84,0,0,0,1.58,3.39l10.17,4.53a17.06,17.06,0,0,0,7,1.48h.61a14.26,14.26,0,0,0,0-28.51Z"/></g><g id="LWPOLYLINE-27" data-name="LWPOLYLINE"><path class="cls-1" d="M104.19,72.33l.3-.52a17.1,17.1,0,0,1,4.76-5.29l9-6.55a2.84,2.84,0,0,1,3.72.33,17.65,17.65,0,0,0,8.41,4.85,2.85,2.85,0,0,1,2.14,3.06l-1.16,11.08a17.09,17.09,0,0,1-2.2,6.77l-.3.52a14.25,14.25,0,1,1-24.69-14.25Z"/></g><g id="LWPOLYLINE-28" data-name="LWPOLYLINE"><path class="cls-1" d="M140.43,9.55l-.3.53a17,17,0,0,0-2.2,6.76l-1.16,11.08A2.86,2.86,0,0,0,138.91,31a17.65,17.65,0,0,1,8.41,4.85,2.85,2.85,0,0,0,3.72.33l9-6.55a17.1,17.1,0,0,0,4.76-5.29l.3-.52A14.26,14.26,0,1,0,140.43,9.55Z"/></g><g id="LWPOLYLINE-29" data-name="LWPOLYLINE"><path class="cls-1" d="M140.43,86.58l-.3-.52a17.09,17.09,0,0,1-2.2-6.77l-1.16-11.08a2.85,2.85,0,0,1,2.14-3.06,17.65,17.65,0,0,0,8.41-4.85A2.84,2.84,0,0,1,151,60l9,6.55a17.1,17.1,0,0,1,4.76,5.29l.3.52a14.25,14.25,0,0,1-24.69,14.25Z"/></g><g id="LWPOLYLINE-30" data-name="LWPOLYLINE"><path class="cls-1" d="M104.19,23.81l.3.52a17.1,17.1,0,0,0,4.76,5.29l9,6.55a2.85,2.85,0,0,0,3.72-.33A17.65,17.65,0,0,1,130.4,31a2.86,2.86,0,0,0,2.14-3.07l-1.16-11.08a17,17,0,0,0-2.2-6.76l-.3-.53a14.26,14.26,0,1,0-24.69,14.26Z"/></g><g id="LWPOLYLINE-31" data-name="LWPOLYLINE"><path class="cls-3" d="M14.25,256.92h.61a17.19,17.19,0,0,1,7,1.48L32,262.94a2.85,2.85,0,0,1,1.58,3.39,17.57,17.57,0,0,0,0,9.7A2.85,2.85,0,0,1,32,279.42L21.82,284a17,17,0,0,1-7,1.48h-.61a14.26,14.26,0,0,1,0-28.51Z"/></g><g id="LWPOLYLINE-32" data-name="LWPOLYLINE"><path class="cls-3" d="M86.74,256.92h-.6a17.19,17.19,0,0,0-7,1.48L69,262.94a2.85,2.85,0,0,0-1.58,3.39,17.57,17.57,0,0,1,0,9.7A2.85,2.85,0,0,0,69,279.42L79.18,284a17,17,0,0,0,7,1.48h.6a14.26,14.26,0,1,0,0-28.51Z"/></g><g id="LWPOLYLINE-33" data-name="LWPOLYLINE"><path class="cls-3" d="M20,295.44l.31-.52a17,17,0,0,1,4.76-5.29l9-6.55a2.87,2.87,0,0,1,3.73.33,17.62,17.62,0,0,0,8.4,4.85,2.86,2.86,0,0,1,2.15,3.06L47.22,302.4a17.09,17.09,0,0,1-2.2,6.77l-.3.53A14.26,14.26,0,0,1,20,295.44Z"/></g><g id="LWPOLYLINE-34" data-name="LWPOLYLINE"><path class="cls-3" d="M56.28,232.66l-.31.53A17.18,17.18,0,0,0,53.78,240L52.61,251a2.86,2.86,0,0,0,2.15,3.06,17.62,17.62,0,0,1,8.4,4.85,2.87,2.87,0,0,0,3.73.33l9-6.55a17.1,17.1,0,0,0,4.76-5.29l.31-.52a14.26,14.26,0,0,0-24.69-14.26Z"/></g><g id="LWPOLYLINE-35" data-name="LWPOLYLINE"><path class="cls-3" d="M56.28,309.7l-.31-.53a17.24,17.24,0,0,1-2.19-6.77l-1.17-11.08a2.86,2.86,0,0,1,2.15-3.06,17.62,17.62,0,0,0,8.4-4.85,2.87,2.87,0,0,1,3.73-.33l9,6.55a17.1,17.1,0,0,1,4.76,5.29l.31.52A14.26,14.26,0,0,1,56.28,309.7Z"/></g><g id="LWPOLYLINE-36" data-name="LWPOLYLINE"><path class="cls-3" d="M20,246.92l.31.52a17,17,0,0,0,4.76,5.29l9,6.55a2.87,2.87,0,0,0,3.73-.33,17.62,17.62,0,0,1,8.4-4.85A2.86,2.86,0,0,0,48.39,251L47.22,240a17,17,0,0,0-2.2-6.77l-.3-.53A14.26,14.26,0,0,0,20,246.92Z"/></g><g id="LWPOLYLINE-37" data-name="LWPOLYLINE"><path class="cls-3" d="M37.44,276.89a20.74,20.74,0,0,0,16.28-1.13,26.77,26.77,0,0,0-3.46-4.13,28.13,28.13,0,0,1-14,.18A14.38,14.38,0,0,0,37.44,276.89Z"/></g><g id="LWPOLYLINE-38" data-name="LWPOLYLINE"><path class="cls-3" d="M38,278a21.67,21.67,0,0,0,16.24-1.48A28.62,28.62,0,0,1,56,279.75,20.78,20.78,0,0,1,40.16,281,14.91,14.91,0,0,1,38,278Z"/></g><g id="LWPOLYLINE-39" data-name="LWPOLYLINE"><path class="cls-3" d="M41.55,282.27a21.67,21.67,0,0,0,14.76-1.73,26,26,0,0,1,1.09,3.11A14.25,14.25,0,0,1,41.55,282.27Z"/></g><g id="LWPOLYLINE-40" data-name="LWPOLYLINE"><path class="cls-3" d="M52.09,257a20.73,20.73,0,0,0-7.17,14.67,26.74,26.74,0,0,0,5.31-.93,28,28,0,0,1,6.85-12.22A14.38,14.38,0,0,0,52.09,257Z"/></g><g id="LWPOLYLINE-41" data-name="LWPOLYLINE"><path class="cls-3" d="M50.9,256.93a21.58,21.58,0,0,0-6.84,14.8,27.15,27.15,0,0,1-3.72-.1,20.8,20.8,0,0,1,6.83-14.31A14.6,14.6,0,0,1,50.9,256.93Z"/></g><g id="LWPOLYLINE-42" data-name="LWPOLYLINE"><path class="cls-3" d="M45.37,257.88a21.6,21.6,0,0,0-5.88,13.66,27.23,27.23,0,0,1-3.24-.62A14.24,14.24,0,0,1,45.37,257.88Z"/></g><g id="LWPOLYLINE-43" data-name="LWPOLYLINE"><path class="cls-3" d="M62,279.64a20.76,20.76,0,0,0-9.11-13.55A26.32,26.32,0,0,0,51,271.16a28,28,0,0,1,7.15,12A14.36,14.36,0,0,0,62,279.64Z"/></g><g id="LWPOLYLINE-44" data-name="LWPOLYLINE"><path class="cls-3" d="M62.64,278.65a21.59,21.59,0,0,0-9.4-13.32,28.81,28.81,0,0,1,1.95-3.18,20.81,20.81,0,0,1,9,13.07A14.27,14.27,0,0,1,62.64,278.65Z"/></g><g id="LWPOLYLINE-45" data-name="LWPOLYLINE"><path class="cls-3" d="M64.58,273.39a21.67,21.67,0,0,0-8.88-11.93,26.76,26.76,0,0,1,2.15-2.5A14.26,14.26,0,0,1,64.58,273.39Z"/></g><g id="LWPOLYLINE-46" data-name="LWPOLYLINE"><path class="cls-4" d="M226.92,256.92h.61a17.19,17.19,0,0,1,7,1.48l10.17,4.54a2.84,2.84,0,0,1,1.58,3.39,17.76,17.76,0,0,0,0,9.7,2.84,2.84,0,0,1-1.58,3.39L234.49,284a17,17,0,0,1-7,1.48h-.61a14.26,14.26,0,0,1,0-28.51Z"/></g><g id="LWPOLYLINE-47" data-name="LWPOLYLINE"><path class="cls-4" d="M299.41,256.92h-.6a17.19,17.19,0,0,0-7,1.48l-10.18,4.54a2.85,2.85,0,0,0-1.58,3.39,17.57,17.57,0,0,1,0,9.7,2.85,2.85,0,0,0,1.58,3.39L291.85,284a17,17,0,0,0,7,1.48h.6a14.26,14.26,0,1,0,0-28.51Z"/></g><g id="LWPOLYLINE-48" data-name="LWPOLYLINE"><path class="cls-4" d="M232.7,295.44l.3-.52a17.1,17.1,0,0,1,4.76-5.29l9-6.55a2.85,2.85,0,0,1,3.72.33,17.7,17.7,0,0,0,8.41,4.85,2.84,2.84,0,0,1,2.14,3.06l-1.16,11.08a17.09,17.09,0,0,1-2.2,6.77l-.3.53a14.26,14.26,0,0,1-24.69-14.26Z"/></g><g id="LWPOLYLINE-49" data-name="LWPOLYLINE"><path class="cls-4" d="M268.94,232.66l-.3.53a17,17,0,0,0-2.2,6.77L265.28,251a2.85,2.85,0,0,0,2.15,3.06,17.62,17.62,0,0,1,8.4,4.85,2.85,2.85,0,0,0,3.72.33l9-6.55a17.1,17.1,0,0,0,4.76-5.29l.3-.52a14.26,14.26,0,0,0-24.69-14.26Z"/></g><g id="LWPOLYLINE-50" data-name="LWPOLYLINE"><path class="cls-4" d="M268.94,309.7l-.3-.53a17.09,17.09,0,0,1-2.2-6.77l-1.16-11.08a2.85,2.85,0,0,1,2.15-3.06,17.62,17.62,0,0,0,8.4-4.85,2.85,2.85,0,0,1,3.72-.33l9,6.55a17.1,17.1,0,0,1,4.76,5.29l.3.52a14.26,14.26,0,0,1-24.69,14.26Z"/></g><g id="LWPOLYLINE-51" data-name="LWPOLYLINE"><path class="cls-4" d="M232.7,246.92l.3.52a17.1,17.1,0,0,0,4.76,5.29l9,6.55a2.85,2.85,0,0,0,3.72-.33,17.7,17.7,0,0,1,8.41-4.85,2.84,2.84,0,0,0,2.14-3.06L259.89,240a17,17,0,0,0-2.2-6.77l-.3-.53a14.26,14.26,0,0,0-24.69,14.26Z"/></g><g id="LWPOLYLINE-52" data-name="LWPOLYLINE"><path class="cls-4" d="M250.11,276.89a20.74,20.74,0,0,0,16.28-1.13,26.77,26.77,0,0,0-3.46-4.13,28.13,28.13,0,0,1-14,.18A14,14,0,0,0,250.11,276.89Z"/></g><g id="LWPOLYLINE-53" data-name="LWPOLYLINE"><path class="cls-4" d="M250.63,278a21.64,21.64,0,0,0,16.23-1.48,27.21,27.21,0,0,1,1.78,3.27A20.78,20.78,0,0,1,252.83,281,14.54,14.54,0,0,1,250.63,278Z"/></g><g id="LWPOLYLINE-54" data-name="LWPOLYLINE"><path class="cls-4" d="M254.21,282.27A21.69,21.69,0,0,0,269,280.54a26,26,0,0,1,1.09,3.11A14.26,14.26,0,0,1,254.21,282.27Z"/></g><g id="LWPOLYLINE-55" data-name="LWPOLYLINE"><path class="cls-4" d="M264.75,257a20.81,20.81,0,0,0-7.17,14.67,26.71,26.71,0,0,0,5.32-.93,28,28,0,0,1,6.84-12.22A14.32,14.32,0,0,0,264.75,257Z"/></g><g id="LWPOLYLINE-56" data-name="LWPOLYLINE"><path class="cls-4" d="M263.56,256.93a21.67,21.67,0,0,0-6.84,14.8,27,27,0,0,1-3.71-.1,20.79,20.79,0,0,1,6.82-14.31A14.65,14.65,0,0,1,263.56,256.93Z"/></g><g id="LWPOLYLINE-57" data-name="LWPOLYLINE"><path class="cls-4" d="M258,257.88a21.67,21.67,0,0,0-5.89,13.66,27.62,27.62,0,0,1-3.24-.62A14.27,14.27,0,0,1,258,257.88Z"/></g><g id="LWPOLYLINE-58" data-name="LWPOLYLINE"><path class="cls-4" d="M274.64,279.64a20.8,20.8,0,0,0-9.11-13.55,27,27,0,0,0-1.86,5.07,28,28,0,0,1,7.16,12A14.36,14.36,0,0,0,274.64,279.64Z"/></g><g id="LWPOLYLINE-59" data-name="LWPOLYLINE"><path class="cls-4" d="M275.31,278.65a21.63,21.63,0,0,0-9.4-13.32,28.81,28.81,0,0,1,1.95-3.18,20.81,20.81,0,0,1,9,13.07A14.27,14.27,0,0,1,275.31,278.65Z"/></g><g id="LWPOLYLINE-60" data-name="LWPOLYLINE"><path class="cls-4" d="M277.25,273.39a21.64,21.64,0,0,0-8.89-11.93,30.12,30.12,0,0,1,2.15-2.5A14.27,14.27,0,0,1,277.25,273.39Z"/></g><g id="LWPOLYLINE-61" data-name="LWPOLYLINE"><path class="cls-5" d="M333.25,256.92h.61a17.19,17.19,0,0,1,7,1.48L351,262.94a2.85,2.85,0,0,1,1.58,3.39,17.57,17.57,0,0,0,0,9.7,2.85,2.85,0,0,1-1.58,3.39L340.82,284a17,17,0,0,1-7,1.48h-.61a14.26,14.26,0,0,1,0-28.51Z"/></g><g id="LWPOLYLINE-62" data-name="LWPOLYLINE"><path class="cls-5" d="M405.74,256.92h-.6a17.19,17.19,0,0,0-7,1.48L388,262.94a2.85,2.85,0,0,0-1.58,3.39,17.57,17.57,0,0,1,0,9.7,2.85,2.85,0,0,0,1.58,3.39L398.18,284a17,17,0,0,0,7,1.48h.6a14.26,14.26,0,1,0,0-28.51Z"/></g><g id="LWPOLYLINE-63" data-name="LWPOLYLINE"><path class="cls-5" d="M339,295.44l.31-.52a17,17,0,0,1,4.76-5.29l9-6.55a2.87,2.87,0,0,1,3.73.33,17.62,17.62,0,0,0,8.4,4.85,2.86,2.86,0,0,1,2.15,3.06l-1.17,11.08a17.09,17.09,0,0,1-2.2,6.77l-.3.53A14.26,14.26,0,0,1,339,295.44Z"/></g><g id="LWPOLYLINE-64" data-name="LWPOLYLINE"><path class="cls-5" d="M375.28,232.66l-.31.53a17.18,17.18,0,0,0-2.19,6.77L371.61,251a2.86,2.86,0,0,0,2.15,3.06,17.62,17.62,0,0,1,8.4,4.85,2.87,2.87,0,0,0,3.73.33l9-6.55a17.1,17.1,0,0,0,4.76-5.29l.31-.52a14.26,14.26,0,0,0-24.69-14.26Z"/></g><g id="LWPOLYLINE-65" data-name="LWPOLYLINE"><path class="cls-5" d="M375.28,309.7l-.31-.53a17.24,17.24,0,0,1-2.19-6.77l-1.17-11.08a2.86,2.86,0,0,1,2.15-3.06,17.62,17.62,0,0,0,8.4-4.85,2.87,2.87,0,0,1,3.73-.33l9,6.55a17.1,17.1,0,0,1,4.76,5.29l.31.52a14.26,14.26,0,0,1-24.69,14.26Z"/></g><g id="LWPOLYLINE-66" data-name="LWPOLYLINE"><path class="cls-5" d="M339,246.92l.31.52a17,17,0,0,0,4.76,5.29l9,6.55a2.87,2.87,0,0,0,3.73-.33,17.62,17.62,0,0,1,8.4-4.85,2.86,2.86,0,0,0,2.15-3.06L366.22,240a17,17,0,0,0-2.2-6.77l-.3-.53A14.26,14.26,0,0,0,339,246.92Z"/></g><g id="LWPOLYLINE-67" data-name="LWPOLYLINE"><path class="cls-5" d="M356.44,276.89a20.74,20.74,0,0,0,16.28-1.13,26.77,26.77,0,0,0-3.46-4.13,28.13,28.13,0,0,1-14,.18A14.38,14.38,0,0,0,356.44,276.89Z"/></g><g id="LWPOLYLINE-68" data-name="LWPOLYLINE"><path class="cls-5" d="M357,278a21.67,21.67,0,0,0,16.24-1.48,28.62,28.62,0,0,1,1.77,3.27A20.78,20.78,0,0,1,359.16,281,14.91,14.91,0,0,1,357,278Z"/></g><g id="LWPOLYLINE-69" data-name="LWPOLYLINE"><path class="cls-5" d="M360.55,282.27a21.67,21.67,0,0,0,14.76-1.73,26,26,0,0,1,1.09,3.11A14.25,14.25,0,0,1,360.55,282.27Z"/></g><g id="LWPOLYLINE-70" data-name="LWPOLYLINE"><path class="cls-5" d="M371.09,257a20.73,20.73,0,0,0-7.17,14.67,26.74,26.74,0,0,0,5.31-.93,28,28,0,0,1,6.85-12.22A14.38,14.38,0,0,0,371.09,257Z"/></g><g id="LWPOLYLINE-71" data-name="LWPOLYLINE"><path class="cls-5" d="M369.9,256.93a21.58,21.58,0,0,0-6.84,14.8,27.15,27.15,0,0,1-3.72-.1,20.8,20.8,0,0,1,6.83-14.31A14.6,14.6,0,0,1,369.9,256.93Z"/></g><g id="LWPOLYLINE-72" data-name="LWPOLYLINE"><path class="cls-5" d="M364.37,257.88a21.6,21.6,0,0,0-5.88,13.66,27.23,27.23,0,0,1-3.24-.62A14.24,14.24,0,0,1,364.37,257.88Z"/></g><g id="LWPOLYLINE-73" data-name="LWPOLYLINE"><path class="cls-5" d="M381,279.64a20.76,20.76,0,0,0-9.11-13.55,26.32,26.32,0,0,0-1.85,5.07,28,28,0,0,1,7.15,12A14.36,14.36,0,0,0,381,279.64Z"/></g><g id="LWPOLYLINE-74" data-name="LWPOLYLINE"><path class="cls-5" d="M381.64,278.65a21.59,21.59,0,0,0-9.4-13.32,28.81,28.81,0,0,1,1.95-3.18,20.81,20.81,0,0,1,9,13.07A14.27,14.27,0,0,1,381.64,278.65Z"/></g><g id="LWPOLYLINE-75" data-name="LWPOLYLINE"><path class="cls-5" d="M383.58,273.39a21.67,21.67,0,0,0-8.88-11.93,26.76,26.76,0,0,1,2.15-2.5A14.26,14.26,0,0,1,383.58,273.39Z"/></g><g id="LWPOLYLINE-76" data-name="LWPOLYLINE"><path class="cls-6" d="M438,256.92h.61a17.26,17.26,0,0,1,7,1.48l10.17,4.54a2.85,2.85,0,0,1,1.58,3.39,17.57,17.57,0,0,0,0,9.7,2.85,2.85,0,0,1-1.58,3.39L445.52,284a17.1,17.1,0,0,1-7,1.48H438a14.26,14.26,0,1,1,0-28.51Z"/></g><g id="LWPOLYLINE-77" data-name="LWPOLYLINE"><path class="cls-6" d="M510.44,256.92h-.61a17.23,17.23,0,0,0-7,1.48l-10.17,4.54a2.84,2.84,0,0,0-1.58,3.39,17.76,17.76,0,0,1,0,9.7,2.84,2.84,0,0,0,1.58,3.39L502.87,284a17.06,17.06,0,0,0,7,1.48h.61a14.26,14.26,0,0,0,0-28.51Z"/></g><g id="LWPOLYLINE-78" data-name="LWPOLYLINE"><path class="cls-6" d="M443.73,295.44l.3-.52a17.1,17.1,0,0,1,4.76-5.29l9-6.55a2.85,2.85,0,0,1,3.72.33,17.62,17.62,0,0,0,8.4,4.85,2.85,2.85,0,0,1,2.15,3.06l-1.16,11.08a17.09,17.09,0,0,1-2.2,6.77l-.3.53a14.26,14.26,0,0,1-24.69-14.26Z"/></g><g id="LWPOLYLINE-79" data-name="LWPOLYLINE"><path class="cls-6" d="M480,232.66l-.3.53a17,17,0,0,0-2.2,6.77L476.31,251a2.84,2.84,0,0,0,2.14,3.06,17.65,17.65,0,0,1,8.41,4.85,2.85,2.85,0,0,0,3.72.33l9-6.55a17.1,17.1,0,0,0,4.76-5.29l.3-.52A14.26,14.26,0,0,0,480,232.66Z"/></g><g id="LWPOLYLINE-80" data-name="LWPOLYLINE"><path class="cls-6" d="M480,309.7l-.3-.53a17.09,17.09,0,0,1-2.2-6.77l-1.16-11.08a2.84,2.84,0,0,1,2.14-3.06,17.65,17.65,0,0,0,8.41-4.85,2.85,2.85,0,0,1,3.72-.33l9,6.55a17.1,17.1,0,0,1,4.76,5.29l.3.52A14.26,14.26,0,0,1,480,309.7Z"/></g><g id="LWPOLYLINE-81" data-name="LWPOLYLINE"><path class="cls-6" d="M443.73,246.92l.3.52a17.1,17.1,0,0,0,4.76,5.29l9,6.55a2.85,2.85,0,0,0,3.72-.33,17.62,17.62,0,0,1,8.4-4.85,2.85,2.85,0,0,0,2.15-3.06L470.92,240a17,17,0,0,0-2.2-6.77l-.3-.53a14.26,14.26,0,0,0-24.69,14.26Z"/></g><g id="LWPOLYLINE-82" data-name="LWPOLYLINE"><path class="cls-6" d="M461.13,276.89a20.76,20.76,0,0,0,16.29-1.13,26.77,26.77,0,0,0-3.46-4.13,28.17,28.17,0,0,1-14,.18A14.38,14.38,0,0,0,461.13,276.89Z"/></g><g id="LWPOLYLINE-83" data-name="LWPOLYLINE"><path class="cls-6" d="M461.66,278a21.64,21.64,0,0,0,16.23-1.48,27.21,27.21,0,0,1,1.78,3.27A20.78,20.78,0,0,1,463.86,281,14.18,14.18,0,0,1,461.66,278Z"/></g><g id="LWPOLYLINE-84" data-name="LWPOLYLINE"><path class="cls-6" d="M465.24,282.27A21.69,21.69,0,0,0,480,280.54a27.92,27.92,0,0,1,1.09,3.11A14.26,14.26,0,0,1,465.24,282.27Z"/></g><g id="LWPOLYLINE-85" data-name="LWPOLYLINE"><path class="cls-6" d="M475.78,257a20.81,20.81,0,0,0-7.17,14.67,26.49,26.49,0,0,0,5.31-.93,28.11,28.11,0,0,1,6.85-12.22A14.38,14.38,0,0,0,475.78,257Z"/></g><g id="LWPOLYLINE-86" data-name="LWPOLYLINE"><path class="cls-6" d="M474.59,256.93a21.62,21.62,0,0,0-6.84,14.8,27.2,27.2,0,0,1-3.72-.1,20.8,20.8,0,0,1,6.83-14.31A14.65,14.65,0,0,1,474.59,256.93Z"/></g><g id="LWPOLYLINE-87" data-name="LWPOLYLINE"><path class="cls-6" d="M469.07,257.88a21.61,21.61,0,0,0-5.89,13.66,27.62,27.62,0,0,1-3.24-.62A14.25,14.25,0,0,1,469.07,257.88Z"/></g><g id="LWPOLYLINE-88" data-name="LWPOLYLINE"><path class="cls-6" d="M485.67,279.64a20.78,20.78,0,0,0-9.12-13.55,27.72,27.72,0,0,0-1.85,5.07,28,28,0,0,1,7.16,12A14.36,14.36,0,0,0,485.67,279.64Z"/></g><g id="LWPOLYLINE-89" data-name="LWPOLYLINE"><path class="cls-6" d="M486.33,278.65a21.57,21.57,0,0,0-9.39-13.32,27.29,27.29,0,0,1,1.94-3.18,20.77,20.77,0,0,1,9,13.07A13.89,13.89,0,0,1,486.33,278.65Z"/></g><g id="LWPOLYLINE-90" data-name="LWPOLYLINE"><path class="cls-6" d="M488.28,273.39a21.64,21.64,0,0,0-8.89-11.93,30.12,30.12,0,0,1,2.15-2.5A14.27,14.27,0,0,1,488.28,273.39Z"/></g></svg>